# Blender v2.83.5 OBJ File: ''
# www.blender.org
mtllib bird.mtl
o corpo
v 1.442523 2.407887 -0.751565
v 1.442523 1.863216 -0.751565
v 1.917145 1.550640 -0.751565
v 1.917145 4.018247 -0.751564
v -1.481898 1.863216 -0.751565
v -1.956520 1.550640 -0.751565
v 0.589145 1.550641 -2.171625
v -0.628520 1.550641 -2.171625
v 0.589145 1.550641 -3.191418
v 1.917145 1.550642 -3.999711
v 1.917145 4.018249 -3.999709
v -0.628520 1.550641 -3.191418
v -1.956520 1.550642 -3.999711
v 0.589145 -0.274514 -2.171625
v 0.589145 -0.274513 -3.191418
v -0.628520 -0.274514 -2.171625
v 1.225928 -0.274514 -2.171625
v 1.225928 -0.274513 -5.303232
v 1.225928 -2.301214 -5.303233
v 1.225928 -2.301216 -2.171627
v -0.019688 -2.301215 -5.303233
v 0.957617 -2.301214 -4.266294
v 0.787214 -2.301214 -4.266294
v 0.957617 -2.301215 -4.070301
v -0.019688 -2.301216 -2.171627
v 0.787214 -2.301215 -4.070301
v -0.826590 -2.301215 -4.070301
v -0.826590 -2.301214 -4.266294
v -1.265304 -2.301216 -2.171627
v 1.917145 -2.301214 -5.303233
v 1.917145 -0.274514 -2.171625
v 1.917145 -2.301216 -2.171627
v 0.362602 -0.274513 -5.303232
v 0.362602 -0.274513 -4.719214
v 0.362602 -0.882523 -5.303232
v 0.362602 -0.007915 -5.594401
v -1.956520 4.018249 -3.999709
v -1.956520 4.018247 -0.751564
v -1.481898 2.407887 -0.751565
v -0.628520 -0.274513 -3.191418
v -1.265304 -0.274513 -5.303232
v -1.265304 -0.274514 -2.171625
v -0.401978 -0.882523 -5.303232
v -0.401978 -0.007915 -5.594401
v -1.265304 -2.301214 -5.303233
v -0.996992 -2.301214 -4.266294
v -0.996992 -2.301215 -4.070301
v -1.956520 -2.301214 -5.303233
v -1.956520 -2.301216 -2.171627
v -1.956520 -0.274514 -2.171625
v -0.401978 -0.274513 -4.719214
v -0.401978 -0.274513 -5.303232
vt 0.625000 0.500000
vt 0.625000 0.750000
vt 0.616511 0.746230
vt 0.624399 0.496708
vt 0.625000 0.750000
vt 0.616844 0.744348
vt 0.562500 0.750000
vt 0.562500 0.750000
vt 0.562500 0.750000
vt 0.614739 0.750219
vt 0.626093 0.500417
vt 0.562500 0.750000
vt 0.614859 0.750384
vt 0.562500 0.750000
vt 0.562500 0.750000
vt 0.562500 0.750000
vt 0.562500 0.750000
vt 0.562500 0.750000
vt 0.562500 0.750000
vt 0.520762 0.750000
vt 0.562500 0.750000
vt 0.500000 0.750000
vt 0.562500 0.750000
vt 0.500000 0.750000
vt 0.562500 0.750000
vt 0.500000 0.750000
vt 0.500000 0.750000
vt 0.500000 0.750000
vt 0.500000 0.750000
vt 0.520762 0.750000
vt 0.562500 0.750000
vt 0.562500 0.750000
vt 0.562500 0.750000
vt 0.562500 0.750000
vt 0.531250 0.750000
vt 0.546875 0.750000
vt 0.521875 0.750000
vt 0.535156 0.750000
vt 0.625207 0.500377
vt 0.623457 0.494711
vt 0.625000 0.500000
vt 0.562500 0.750000
vt 0.562500 0.750000
vt 0.562500 0.750000
vt 0.521875 0.750000
vt 0.535156 0.750000
vt 0.562500 0.750000
vt 0.562500 0.750000
vt 0.562500 0.750000
vt 0.562500 0.750000
vt 0.562500 0.750000
vt 0.562500 0.750000
vt 0.546875 0.750000
vt 0.531250 0.750000
vn 0.0000 -0.0000 1.0000
vn -0.0000 -1.0000 -0.0000
vn 1.0000 -0.0000 0.0000
vn -0.0000 1.0000 0.0000
vn 0.0000 0.8395 -0.5433
vn 0.0000 0.9988 0.0486
vn -0.0000 0.0000 -1.0000
vn -1.0000 0.0000 0.0000
vn 0.0000 -0.3159 -0.9488
vn 0.0000 0.9566 0.2914
usemtl lambert3
s 1
f 1/1/1 2/2/1 3/3/1 4/4/1
f 3/3/1 2/2/1 5/5/1 6/6/1
f 7/7/2 3/3/2 6/6/2 8/8/2
f 3/3/2 7/7/2 9/9/2 10/10/2
f 4/4/3 3/3/3 10/10/3 11/11/3
f 10/10/2 9/9/2 12/12/2 13/13/2
f 9/9/3 7/7/3 14/14/3 15/15/3
f 14/14/1 7/7/1 8/8/1 16/16/1
f 15/15/4 14/14/4 17/17/4 18/18/4
f 18/18/3 17/17/3 19/19/3
f 17/17/1 14/20/1 20/21/1
f 21/22/2 19/19/2 22/23/2 23/24/2
f 19/19/2 20/21/2 24/25/2 22/23/2
f 20/21/2 25/26/2 26/27/2 24/25/2
f 21/22/2 23/24/2 26/27/2 25/26/2 27/28/2 28/29/2
f 25/26/1 16/30/1 29/31/1
f 30/32/3 31/33/3 32/34/3
f 19/19/5 17/17/5 31/33/5 30/32/5
f 17/17/1 20/21/1 32/34/1 31/33/1
f 20/21/2 19/19/2 30/32/2 32/34/2
f 18/18/4 33/35/4 34/36/6 15/15/4
f 35/37/7 33/35/7 18/18/7 19/19/7
f 33/35/3 35/37/3 36/38/3
f 34/36/3 33/35/3 36/38/3
f 10/10/7 13/13/7 37/39/7 11/11/7
f 4/4/1 38/40/1 39/41/1 1/1/1
f 39/41/1 38/40/1 6/6/1 5/5/1
f 6/6/2 13/13/2 12/12/2 8/8/2
f 38/40/8 37/39/8 13/13/8 6/6/8
f 11/11/4 37/39/4 38/40/4 4/4/4
f 15/15/7 40/42/7 12/12/7 9/9/7
f 12/12/8 40/42/8 16/16/8 8/8/8
f 40/42/4 41/43/4 42/44/4 16/16/4
f 35/37/9 43/45/9 44/46/9 36/38/9
f 41/43/8 45/47/8 42/44/8
f 42/44/1 29/31/1 16/30/1
f 21/22/2 28/29/2 46/48/2 45/47/2
f 45/47/2 46/48/2 47/49/2 29/31/2
f 29/31/2 47/49/2 27/28/2 25/26/2
f 48/50/8 49/51/8 50/52/8
f 45/47/5 48/50/5 50/52/5 42/44/5
f 42/44/1 50/52/1 49/51/1 29/31/1
f 29/31/2 49/51/2 48/50/2 45/47/2
f 41/43/4 40/42/4 51/53/6 52/54/4
f 43/45/7 45/47/7 41/43/7 52/54/7
f 21/22/7 35/37/7 19/19/7
f 52/54/8 44/46/8 43/45/8
f 51/53/6 40/42/4 15/15/4 34/36/6
f 51/53/8 44/46/8 52/54/8
f 51/53/6 34/36/6 36/38/10 44/46/10
f 25/26/1 20/21/1 14/20/1
f 25/26/1 14/20/1 16/30/1
f 21/22/7 45/47/7 43/45/7
f 21/22/7 43/45/7 35/37/7
o becco
v 1.442523 1.863216 1.359971
v 1.442523 1.863216 -0.751565
v 1.442523 2.407887 -0.751565
v 1.442523 2.407887 1.359971
v -1.481898 2.407887 1.359971
v -1.481898 1.863216 1.359971
v -1.481898 2.407887 -0.751565
v -1.481898 1.863216 -0.751565
vt 0.625000 0.000000
vt 0.875000 0.000000
vt 0.875000 0.250000
vt 0.625000 0.250000
vt 0.625000 0.250000
vt 0.625000 0.000000
vt 0.625000 0.500000
vt 0.625000 0.750000
vt 0.625000 0.500000
vt 0.625000 1.000000
vt 0.625000 0.750000
vn 1.0000 -0.0000 0.0000
vn 0.0000 0.0000 1.0000
vn -1.0000 -0.0000 0.0000
vn 0.0000 1.0000 0.0000
vn 0.0000 -1.0000 -0.0000
usemtl Orange
s 1
f 53/55/11 54/56/11 55/57/11 56/58/11
f 56/58/12 57/59/12 58/60/12 53/55/12
f 58/60/13 57/59/13 59/61/13 60/62/13
f 55/63/14 59/61/14 57/59/14 56/58/14
f 53/64/15 58/60/15 60/62/15 54/65/15
o gambadx
v -0.826589 -1.370133 -4.266294
v -0.826589 -5.386491 -4.266295
v -0.996991 -5.386491 -4.266295
v -0.996991 -1.370133 -4.266294
v -0.996991 -5.386491 -4.070302
v -0.996991 -1.370135 -4.070302
v -0.826589 -5.386491 -4.070302
v -0.826589 -1.370135 -4.070302
v -0.911790 -5.667871 -4.266295
v -1.136325 -5.386491 -4.266295
v -1.136325 -5.667871 -4.266295
v -1.472477 -5.667871 -3.424260
v -1.472477 -5.386491 -3.424260
v -0.911790 -5.667871 -3.156060
v -0.911790 -5.386491 -3.156060
v -0.351104 -5.386491 -3.424260
v -0.351104 -5.667871 -3.424260
v -0.687255 -5.667871 -4.266295
v -0.687255 -5.386491 -4.266295
vt 0.500000 0.750000
vt 0.500000 0.750000
vt 0.562500 0.750000
vt 0.562500 0.750000
vt 0.562500 0.750000
vt 0.562500 0.750000
vt 0.500000 0.750000
vt 0.500000 0.750000
vt 0.531250 0.750000
vt 0.562500 0.750000
vt 0.562500 0.750000
vt 0.562500 0.750000
vt 0.562500 0.750000
vt 0.531250 0.750000
vt 0.531250 0.750000
vt 0.500000 0.750000
vt 0.500000 0.750000
vt 0.500000 0.750000
vt 0.500000 0.750000
vn 0.0000 0.0000 -1.0000
vn -1.0000 -0.0000 0.0000
vn 0.0000 -0.0000 1.0000
vn 1.0000 -0.0000 0.0000
vn -0.9287 0.0000 -0.3708
vn -0.4315 0.0000 0.9021
vn 0.9287 0.0000 -0.3708
vn 0.0000 1.0000 0.0000
vn 0.0000 -1.0000 -0.0000
vn 0.4315 0.0000 0.9021
usemtl Orange
s 1
f 61/66/16 62/67/16 63/68/16 64/69/16
f 64/69/17 63/68/17 65/70/17 66/71/17
f 66/71/18 65/70/18 67/72/18 68/73/18
f 68/73/19 67/72/19 62/67/19 61/66/19
f 62/67/16 69/74/16 63/68/16
f 70/75/20 71/76/20 72/77/20 73/78/20
f 73/78/21 72/77/21 74/79/21 75/80/21
f 76/81/22 77/82/22 78/83/22 79/84/22
f 63/68/23 70/75/23 73/78/23 65/70/23
f 69/74/24 72/77/24 71/76/24
f 69/74/16 71/76/16 70/75/16 63/68/16
f 65/70/23 73/78/23 75/80/23 67/72/23
f 69/74/24 74/79/24 72/77/24
f 67/72/23 76/81/23 79/84/23 62/67/23
f 62/67/16 79/84/16 78/83/16 69/74/16
f 69/74/24 78/83/24 77/82/24
f 75/80/23 76/81/23 67/72/23
f 74/79/25 77/82/25 76/81/25 75/80/25
f 69/74/24 77/82/24 74/79/24
o occhiosx
v 0.913026 2.982501 -0.612428
v 1.281098 2.982501 -0.612428
v 1.281098 3.350574 -0.612427
v 0.913026 3.350574 -0.612427
v 1.281098 3.350574 -0.818613
v 0.913026 3.350574 -0.818613
v 0.913026 2.982502 -0.818614
v 1.281098 2.982502 -0.818614
vt 0.375000 0.000000
vt 0.625000 0.000000
vt 0.625000 0.250000
vt 0.375000 0.250000
vt 0.625000 0.500000
vt 0.375000 0.500000
vt 0.375000 0.750000
vt 0.625000 0.750000
vt 0.625000 1.000000
vt 0.375000 1.000000
vt 0.875000 0.000000
vt 0.875000 0.250000
vt 0.125000 0.000000
vt 0.125000 0.250000
vn 0.0000 -0.0000 1.0000
vn 0.0000 1.0000 0.0000
vn 0.0000 -1.0000 -0.0000
vn 1.0000 0.0000 0.0000
vn -1.0000 0.0000 0.0000
usemtl Black
s 1
f 80/85/26 81/86/26 82/87/26 83/88/26
f 83/88/27 82/87/27 84/89/27 85/90/27
f 86/91/28 87/92/28 81/93/28 80/94/28
f 81/86/29 87/95/29 84/96/29 82/87/29
f 86/97/30 80/85/30 83/88/30 85/98/30
o occhiodx
v -1.320472 2.982501 -0.612428
v -0.952400 2.982501 -0.612428
v -0.952400 3.350574 -0.612427
v -1.320472 3.350574 -0.612427
v -0.952400 3.350574 -0.818613
v -1.320472 3.350574 -0.818613
v -1.320472 2.982502 -0.818614
v -0.952400 2.982502 -0.818614
vt 0.375000 0.000000
vt 0.625000 0.000000
vt 0.625000 0.250000
vt 0.375000 0.250000
vt 0.625000 0.500000
vt 0.375000 0.500000
vt 0.375000 0.750000
vt 0.625000 0.750000
vt 0.625000 1.000000
vt 0.375000 1.000000
vt 0.875000 0.000000
vt 0.875000 0.250000
vt 0.125000 0.000000
vt 0.125000 0.250000
vn 0.0000 -0.0000 1.0000
vn 0.0000 1.0000 0.0000
vn 0.0000 -1.0000 -0.0000
vn 1.0000 0.0000 0.0000
vn -1.0000 0.0000 0.0000
usemtl Black
s 1
f 88/99/31 89/100/31 90/101/31 91/102/31
f 91/102/32 90/101/32 92/103/32 93/104/32
f 94/105/33 95/106/33 89/107/33 88/108/33
f 89/100/34 95/109/34 92/110/34 90/101/34
f 94/111/35 88/99/35 91/102/35 93/112/35
o gambasx
v 0.787215 -1.331048 -4.266294
v 0.957618 -1.331048 -4.266294
v 0.957618 -5.347406 -4.266295
v 0.787215 -5.347406 -4.266295
v 0.957618 -1.331050 -4.070302
v 0.957618 -5.347406 -4.070302
v 0.787215 -1.331050 -4.070302
v 0.787215 -5.347406 -4.070302
v 0.872416 -5.628786 -4.266295
v 1.096951 -5.347406 -4.266295
v 1.433103 -5.347406 -3.424260
v 1.433103 -5.628786 -3.424260
v 1.096951 -5.628786 -4.266295
v 0.872416 -5.347406 -3.156060
v 0.872416 -5.628786 -3.156060
v 0.311730 -5.347406 -3.424260
v 0.647882 -5.347406 -4.266295
v 0.647882 -5.628786 -4.266295
v 0.311730 -5.628786 -3.424260
vt 0.500000 0.750000
vt 0.562500 0.750000
vt 0.562500 0.750000
vt 0.500000 0.750000
vt 0.562500 0.750000
vt 0.562500 0.750000
vt 0.500000 0.750000
vt 0.500000 0.750000
vt 0.531250 0.750000
vt 0.562500 0.750000
vt 0.562500 0.750000
vt 0.562500 0.750000
vt 0.562500 0.750000
vt 0.531250 0.750000
vt 0.531250 0.750000
vt 0.500000 0.750000
vt 0.500000 0.750000
vt 0.500000 0.750000
vt 0.500000 0.750000
vn 0.0000 0.0000 -1.0000
vn 1.0000 -0.0000 0.0000
vn 0.0000 -0.0000 1.0000
vn -1.0000 0.0000 0.0000
vn 0.9287 0.0000 -0.3708
vn 0.4315 0.0000 0.9021
vn -0.9287 0.0000 -0.3708
vn 0.0000 1.0000 -0.0000
vn 0.0000 -1.0000 -0.0000
vn -0.4315 0.0000 0.9021
usemtl Orange
s 1
f 96/113/36 97/114/36 98/115/36 99/116/36
f 97/114/37 100/117/37 101/118/37 98/115/37
f 100/117/38 102/119/38 103/120/38 101/118/38
f 102/119/39 96/113/39 99/116/39 103/120/39
f 99/116/36 98/115/36 104/121/36
f 105/122/40 106/123/40 107/124/40 108/125/40
f 106/123/41 109/126/41 110/127/41 107/124/41
f 111/128/42 112/129/42 113/130/42 114/131/42
f 98/115/43 101/118/43 106/123/43 105/122/43
f 104/121/44 108/125/44 107/124/44
f 104/121/36 98/115/36 105/122/36 108/125/36
f 101/118/43 103/120/43 109/126/43 106/123/43
f 104/121/44 107/124/44 110/127/44
f 103/120/43 99/116/43 112/129/43 111/128/43
f 99/116/36 104/121/36 113/130/36 112/129/36
f 104/121/44 114/131/44 113/130/44
f 109/126/43 103/120/43 111/128/43
f 110/127/45 109/126/45 111/128/45 114/131/45
f 104/121/44 110/127/44 114/131/44
