o ring
v 0.5 -0.0014542198792315553 0
v 0.3535533845424652 0.35209916466323365 0
v 3.0616171314629196e-17 0.49854578012076844 0
v -0.3535533845424652 0.35209916466323365 0
v -0.5 -0.0014542198792314941 0
v -0.3535533845424652 -0.35500760442169677 0
v -9.184850732644269e-17 -0.5014542198792316 0
v 0.3535533845424652 -0.35500760442169677 0
v 0.5 -0.0014542198792316778 0
v 1 -0.0014542198792315553 0
v 0.7071067690849304 0.7056525492056989 0
v 6.123234262925839e-17 0.9985457801207684 0
v -0.7071067690849304 0.7056525492056989 0
v -1 -0.0014542198792314328 0
v -0.7071067690849304 -0.708560988964162 0
v -1.8369701465288538e-16 -1.0014542198792316 0
v 0.7071067690849304 -0.708560988964162 0
v 1 -0.0014542198792318003 0
vt 0.75 0.5
vt 0.6767767071723938 0.6767767071723938
vt 0.5 0.75
vt 0.3232232928276062 0.6767767071723938
vt 0.25 0.5
vt 0.3232232928276062 0.3232232928276062
vt 0.5 0.25
vt 0.6767767071723938 0.3232232928276062
vt 0.75 0.5
vt 1 0.5
vt 0.8535534143447876 0.8535534143447876
vt 0.5 1
vt 0.1464466154575348 0.8535534143447876
vt 0 0.5
vt 0.1464466154575348 0.1464466154575348
vt 0.5 0
vt 0.8535534143447876 0.1464466154575348
vt 1 0.5
vn 0 0 1
vn 0 0 1
vn 0 0 1
vn 0 0 1
vn 0 0 1
vn 0 0 1
vn 0 0 1
vn 0 0 1
vn 0 0 1
vn 0 0 1
vn 0 0 1
vn 0 0 1
vn 0 0 1
vn 0 0 1
vn 0 0 1
vn 0 0 1
vn 0 0 1
vn 0 0 1
f 1/1/1 10/10/10 2/2/2
f 10/10/10 11/11/11 2/2/2
f 2/2/2 11/11/11 3/3/3
f 11/11/11 12/12/12 3/3/3
f 3/3/3 12/12/12 4/4/4
f 12/12/12 13/13/13 4/4/4
f 4/4/4 13/13/13 5/5/5
f 13/13/13 14/14/14 5/5/5
f 5/5/5 14/14/14 6/6/6
f 14/14/14 15/15/15 6/6/6
f 6/6/6 15/15/15 7/7/7
f 15/15/15 16/16/16 7/7/7
f 7/7/7 16/16/16 8/8/8
f 16/16/16 17/17/17 8/8/8
f 8/8/8 17/17/17 9/9/9
f 17/17/17 18/18/18 9/9/9
