o Torus
v 1.399999976158142 0 0
v 0.699999988079071 1.2124356031417847 0
v -0.699999988079071 1.2124356031417847 0
v -1.399999976158142 1.714505461270337e-16 0
v -0.699999988079071 -1.2124356031417847 0
v 0.699999988079071 -1.2124356031417847 0
v 1.399999976158142 -3.429010922540674e-16 0
v 1.282842755317688 0 0.2828427255153656
v 0.641421377658844 1.1109744310379028 0.2828427255153656
v -0.641421377658844 1.1109744310379028 0.2828427255153656
v -1.282842755317688 1.5710291973128912e-16 0.2828427255153656
v -0.641421377658844 -1.1109744310379028 0.2828427255153656
v 0.641421377658844 -1.1109744310379028 0.2828427255153656
v 1.282842755317688 -3.1420583946257824e-16 0.2828427255153656
v 1 0 0.4000000059604645
v 0.5 0.8660253882408142 0.4000000059604645
v -0.5 0.8660253882408142 0.4000000059604645
v -1 1.2246468525851679e-16 0.4000000059604645
v -0.5 -0.8660253882408142 0.4000000059604645
v 0.5 -0.8660253882408142 0.4000000059604645
v 1 -2.4492937051703357e-16 0.4000000059604645
v 0.7171573042869568 0 0.2828427255153656
v 0.3585786521434784 0.6210764050483704 0.2828427255153656
v -0.3585786521434784 0.6210764050483704 0.2828427255153656
v -0.7171573042869568 8.782643755085465e-17 0.2828427255153656
v -0.3585786521434784 -0.6210764050483704 0.2828427255153656
v 0.3585786521434784 -0.6210764050483704 0.2828427255153656
v 0.7171573042869568 -1.756528751017093e-16 0.2828427255153656
v 0.6000000238418579 0 4.8985870794684264e-17
v 0.30000001192092896 0.5196152329444885 4.8985870794684264e-17
v -0.30000001192092896 0.5196152329444885 4.8985870794684264e-17
v -0.6000000238418579 7.347881115511007e-17 4.8985870794684264e-17
v -0.30000001192092896 -0.5196152329444885 4.8985870794684264e-17
v 0.30000001192092896 -0.5196152329444885 4.8985870794684264e-17
v 0.6000000238418579 -1.4695762231022014e-16 4.8985870794684264e-17
v 0.7171573042869568 0 -0.2828427255153656
v 0.3585786521434784 0.6210764050483704 -0.2828427255153656
v -0.3585786521434784 0.6210764050483704 -0.2828427255153656
v -0.7171573042869568 8.782643755085465e-17 -0.2828427255153656
v -0.3585786521434784 -0.6210764050483704 -0.2828427255153656
v 0.3585786521434784 -0.6210764050483704 -0.2828427255153656
v 0.7171573042869568 -1.756528751017093e-16 -0.2828427255153656
v 1 0 -0.4000000059604645
v 0.5 0.8660253882408142 -0.4000000059604645
v -0.5 0.8660253882408142 -0.4000000059604645
v -1 1.2246468525851679e-16 -0.4000000059604645
v -0.5 -0.8660253882408142 -0.4000000059604645
v 0.5 -0.8660253882408142 -0.4000000059604645
v 1 -2.4492937051703357e-16 -0.4000000059604645
v 1.282842755317688 0 -0.2828427255153656
v 0.641421377658844 1.1109744310379028 -0.2828427255153656
v -0.641421377658844 1.1109744310379028 -0.2828427255153656
v -1.282842755317688 1.5710291973128912e-16 -0.2828427255153656
v -0.641421377658844 -1.1109744310379028 -0.2828427255153656
v 0.641421377658844 -1.1109744310379028 -0.2828427255153656
v 1.282842755317688 -3.1420583946257824e-16 -0.2828427255153656
v 1.399999976158142 0 -9.797174158936853e-17
v 0.699999988079071 1.2124356031417847 -9.797174158936853e-17
v -0.699999988079071 1.2124356031417847 -9.797174158936853e-17
v -1.399999976158142 1.714505461270337e-16 -9.797174158936853e-17
v -0.699999988079071 -1.2124356031417847 -9.797174158936853e-17
v 0.699999988079071 -1.2124356031417847 -9.797174158936853e-17
v 1.399999976158142 -3.429010922540674e-16 -9.797174158936853e-17
vt 0 0
vt 0.1666666716337204 0
vt 0.3333333432674408 0
vt 0.5 0
vt 0.6666666865348816 0
vt 0.8333333134651184 0
vt 1 0
vt 0 0.125
vt 0.1666666716337204 0.125
vt 0.3333333432674408 0.125
vt 0.5 0.125
vt 0.6666666865348816 0.125
vt 0.8333333134651184 0.125
vt 1 0.125
vt 0 0.25
vt 0.1666666716337204 0.25
vt 0.3333333432674408 0.25
vt 0.5 0.25
vt 0.6666666865348816 0.25
vt 0.8333333134651184 0.25
vt 1 0.25
vt 0 0.375
vt 0.1666666716337204 0.375
vt 0.3333333432674408 0.375
vt 0.5 0.375
vt 0.6666666865348816 0.375
vt 0.8333333134651184 0.375
vt 1 0.375
vt 0 0.5
vt 0.1666666716337204 0.5
vt 0.3333333432674408 0.5
vt 0.5 0.5
vt 0.6666666865348816 0.5
vt 0.8333333134651184 0.5
vt 1 0.5
vt 0 0.625
vt 0.1666666716337204 0.625
vt 0.3333333432674408 0.625
vt 0.5 0.625
vt 0.6666666865348816 0.625
vt 0.8333333134651184 0.625
vt 1 0.625
vt 0 0.75
vt 0.1666666716337204 0.75
vt 0.3333333432674408 0.75
vt 0.5 0.75
vt 0.6666666865348816 0.75
vt 0.8333333134651184 0.75
vt 1 0.75
vt 0 0.875
vt 0.1666666716337204 0.875
vt 0.3333333432674408 0.875
vt 0.5 0.875
vt 0.6666666865348816 0.875
vt 0.8333333134651184 0.875
vt 1 0.875
vt 0 1
vt 0.1666666716337204 1
vt 0.3333333432674408 1
vt 0.5 1
vt 0.6666666865348816 1
vt 0.8333333134651184 1
vt 1 1
vn 1 0 0
vn 0.5000000067305869 0.8660253998985324 0
vn -0.5000000067305869 0.8660253998985324 0
vn -1 1.2246468525851679e-16 0
vn -0.5000000067305869 -0.8660253998985324 0
vn 0.5000000067305869 -0.8660253998985324 0
vn 1 -2.4492937051703357e-16 0
vn 0.7071067811865476 0 0.7071067811865476
vn 0.3535533834993082 0.6123724561743086 0.7071067669986164
vn -0.3535533834993082 0.6123724561743086 0.7071067669986164
vn -0.7071067811865476 8.659560751628624e-17 0.7071067811865476
vn -0.3535533834993082 -0.6123724561743086 0.7071067669986164
vn 0.3535533834993082 -0.6123724561743086 0.7071067669986164
vn 0.7071067811865476 -1.7319121503257247e-16 0.7071067811865476
vn 0 0 1
vn 0 0 1
vn 0 0 1
vn 0 0 1
vn 0 0 1
vn 0 0 1
vn 0 0 1
vn -0.7071067811865476 0 0.7071067811865476
vn -0.3535533834993082 -0.6123724561743086 0.7071067669986164
vn 0.3535533834993082 -0.6123724561743086 0.7071067669986164
vn 0.7071067811865476 -8.659560751628624e-17 0.7071067811865476
vn 0.3535533834993082 0.6123724561743086 0.7071067669986164
vn -0.3535533834993082 0.6123724561743086 0.7071067669986164
vn -0.7071067811865476 1.7319121503257247e-16 0.7071067811865476
vn -1 0 1.2246468525851679e-16
vn -0.5000000067305869 -0.8660253998985324 1.224646869070352e-16
vn 0.5000000067305869 -0.8660253998985324 1.224646869070352e-16
vn 1 -1.2246468525851679e-16 1.2246468525851679e-16
vn 0.5000000067305869 0.8660253998985324 1.224646869070352e-16
vn -0.5000000067305869 0.8660253998985324 1.224646869070352e-16
vn -1 2.4492937051703357e-16 1.2246468525851679e-16
vn -0.7071067811865476 0 -0.7071067811865476
vn -0.3535533834993082 -0.6123724561743086 -0.7071067669986164
vn 0.3535533834993082 -0.6123724561743086 -0.7071067669986164
vn 0.7071067811865476 -8.659560751628624e-17 -0.7071067811865476
vn 0.3535533834993082 0.6123724561743086 -0.7071067669986164
vn -0.3535533834993082 0.6123724561743086 -0.7071067669986164
vn -0.7071067811865476 1.7319121503257247e-16 -0.7071067811865476
vn -2.7755575615628914e-16 0 -1
vn -2.7755575615628914e-16 -2.7755575615628914e-16 -1
vn 1.3877787807814457e-16 -2.7755575615628914e-16 -1
vn 2.7755575615628914e-16 -6.162975822039155e-32 -1
vn 2.7755575615628914e-16 2.7755575615628914e-16 -1
vn -2.7755575615628914e-16 2.7755575615628914e-16 -1
vn -2.7755575615628914e-16 1.232595164407831e-31 -1
vn 0.7071067811865476 0 -0.7071067811865476
vn 0.3535533834993082 0.6123724561743086 -0.7071067669986164
vn -0.3535533834993082 0.6123724561743086 -0.7071067669986164
vn -0.7071067811865476 8.659560751628624e-17 -0.7071067811865476
vn -0.3535533834993082 -0.6123724561743086 -0.7071067669986164
vn 0.3535533834993082 -0.6123724561743086 -0.7071067669986164
vn 0.7071067811865476 -1.7319121503257247e-16 -0.7071067811865476
vn 1 0 -2.4492937051703357e-16
vn 0.5000000067305869 0.8660253998985324 -2.449293738140704e-16
vn -0.5000000067305869 0.8660253998985324 -2.449293738140704e-16
vn -1 1.2246468525851679e-16 -2.4492937051703357e-16
vn -0.5000000067305869 -0.8660253998985324 -2.449293738140704e-16
vn 0.5000000067305869 -0.8660253998985324 -2.449293738140704e-16
vn 1 -2.4492937051703357e-16 -2.4492937051703357e-16
f 8/8/8 1/1/1 9/9/9
f 1/1/1 2/2/2 9/9/9
f 9/9/9 2/2/2 10/10/10
f 2/2/2 3/3/3 10/10/10
f 10/10/10 3/3/3 11/11/11
f 3/3/3 4/4/4 11/11/11
f 11/11/11 4/4/4 12/12/12
f 4/4/4 5/5/5 12/12/12
f 12/12/12 5/5/5 13/13/13
f 5/5/5 6/6/6 13/13/13
f 13/13/13 6/6/6 14/14/14
f 6/6/6 7/7/7 14/14/14
f 15/15/15 8/8/8 16/16/16
f 8/8/8 9/9/9 16/16/16
f 16/16/16 9/9/9 17/17/17
f 9/9/9 10/10/10 17/17/17
f 17/17/17 10/10/10 18/18/18
f 10/10/10 11/11/11 18/18/18
f 18/18/18 11/11/11 19/19/19
f 11/11/11 12/12/12 19/19/19
f 19/19/19 12/12/12 20/20/20
f 12/12/12 13/13/13 20/20/20
f 20/20/20 13/13/13 21/21/21
f 13/13/13 14/14/14 21/21/21
f 22/22/22 15/15/15 23/23/23
f 15/15/15 16/16/16 23/23/23
f 23/23/23 16/16/16 24/24/24
f 16/16/16 17/17/17 24/24/24
f 24/24/24 17/17/17 25/25/25
f 17/17/17 18/18/18 25/25/25
f 25/25/25 18/18/18 26/26/26
f 18/18/18 19/19/19 26/26/26
f 26/26/26 19/19/19 27/27/27
f 19/19/19 20/20/20 27/27/27
f 27/27/27 20/20/20 28/28/28
f 20/20/20 21/21/21 28/28/28
f 29/29/29 22/22/22 30/30/30
f 22/22/22 23/23/23 30/30/30
f 30/30/30 23/23/23 31/31/31
f 23/23/23 24/24/24 31/31/31
f 31/31/31 24/24/24 32/32/32
f 24/24/24 25/25/25 32/32/32
f 32/32/32 25/25/25 33/33/33
f 25/25/25 26/26/26 33/33/33
f 33/33/33 26/26/26 34/34/34
f 26/26/26 27/27/27 34/34/34
f 34/34/34 27/27/27 35/35/35
f 27/27/27 28/28/28 35/35/35
f 36/36/36 29/29/29 37/37/37
f 29/29/29 30/30/30 37/37/37
f 37/37/37 30/30/30 38/38/38
f 30/30/30 31/31/31 38/38/38
f 38/38/38 31/31/31 39/39/39
f 31/31/31 32/32/32 39/39/39
f 39/39/39 32/32/32 40/40/40
f 32/32/32 33/33/33 40/40/40
f 40/40/40 33/33/33 41/41/41
f 33/33/33 34/34/34 41/41/41
f 41/41/41 34/34/34 42/42/42
f 34/34/34 35/35/35 42/42/42
f 43/43/43 36/36/36 44/44/44
f 36/36/36 37/37/37 44/44/44
f 44/44/44 37/37/37 45/45/45
f 37/37/37 38/38/38 45/45/45
f 45/45/45 38/38/38 46/46/46
f 38/38/38 39/39/39 46/46/46
f 46/46/46 39/39/39 47/47/47
f 39/39/39 40/40/40 47/47/47
f 47/47/47 40/40/40 48/48/48
f 40/40/40 41/41/41 48/48/48
f 48/48/48 41/41/41 49/49/49
f 41/41/41 42/42/42 49/49/49
f 50/50/50 43/43/43 51/51/51
f 43/43/43 44/44/44 51/51/51
f 51/51/51 44/44/44 52/52/52
f 44/44/44 45/45/45 52/52/52
f 52/52/52 45/45/45 53/53/53
f 45/45/45 46/46/46 53/53/53
f 53/53/53 46/46/46 54/54/54
f 46/46/46 47/47/47 54/54/54
f 54/54/54 47/47/47 55/55/55
f 47/47/47 48/48/48 55/55/55
f 55/55/55 48/48/48 56/56/56
f 48/48/48 49/49/49 56/56/56
f 57/57/57 50/50/50 58/58/58
f 50/50/50 51/51/51 58/58/58
f 58/58/58 51/51/51 59/59/59
f 51/51/51 52/52/52 59/59/59
f 59/59/59 52/52/52 60/60/60
f 52/52/52 53/53/53 60/60/60
f 60/60/60 53/53/53 61/61/61
f 53/53/53 54/54/54 61/61/61
f 61/61/61 54/54/54 62/62/62
f 54/54/54 55/55/55 62/62/62
f 62/62/62 55/55/55 63/63/63
f 55/55/55 56/56/56 63/63/63
o Cylinder
v 0.6358466907413657 0.05740967073484253 0.31792334537068284
v 0.31792334537068295 0.6080690479457708 0.31792334537068273
v -0.31792334537068273 0.608069047945771 0.31792334537068273
v -0.6358466907413657 0.05740967073484289 0.31792334537068284
v -0.31792334537068295 -0.49324970647608535 0.31792334537068295
v 0.31792334537068273 -0.49324970647608557 0.31792334537068295
v 0.6358466907413657 0.05740967073484237 0.31792334537068284
v 0.6358466907413657 0.057409670734842384 -0.31792334537068284
v 0.31792334537068295 0.6080690479457705 -0.31792334537068295
v -0.31792334537068273 0.6080690479457708 -0.31792334537068295
v -0.6358466907413657 0.057409670734842745 -0.31792334537068284
v -0.31792334537068295 -0.49324970647608557 -0.31792334537068273
v 0.31792334537068273 -0.4932497064760858 -0.31792334537068273
v 0.6358466907413657 0.05740967073484223 -0.31792334537068284
v 0 0.05740967073484267 0.31792334537068284
v 0 0.05740967073484267 0.31792334537068284
v 0 0.05740967073484267 0.31792334537068284
v 0 0.05740967073484267 0.31792334537068284
v 0 0.05740967073484267 0.31792334537068284
v 0 0.05740967073484267 0.31792334537068284
v 0.6358466907413657 0.05740967073484253 0.31792334537068284
v 0.31792334537068295 0.6080690479457708 0.31792334537068273
v -0.31792334537068273 0.608069047945771 0.31792334537068273
v -0.6358466907413657 0.05740967073484289 0.31792334537068284
v -0.31792334537068295 -0.49324970647608535 0.31792334537068295
v 0.31792334537068273 -0.49324970647608557 0.31792334537068295
v 0.6358466907413657 0.05740967073484237 0.31792334537068284
v 0 0.05740967073484253 -0.31792334537068284
v 0 0.05740967073484253 -0.31792334537068284
v 0 0.05740967073484253 -0.31792334537068284
v 0 0.05740967073484253 -0.31792334537068284
v 0 0.05740967073484253 -0.31792334537068284
v 0 0.05740967073484253 -0.31792334537068284
v 0.6358466907413657 0.057409670734842384 -0.31792334537068284
v 0.31792334537068295 0.6080690479457705 -0.31792334537068295
v -0.31792334537068273 0.6080690479457708 -0.31792334537068295
v -0.6358466907413657 0.057409670734842745 -0.31792334537068284
v -0.31792334537068295 -0.49324970647608557 -0.31792334537068273
v 0.31792334537068273 -0.4932497064760858 -0.31792334537068273
v 0.6358466907413657 0.05740967073484223 -0.31792334537068284
vt 0 1
vt 0.1666666716337204 1
vt 0.3333333432674408 1
vt 0.5 1
vt 0.6666666865348816 1
vt 0.8333333134651184 1
vt 1 1
vt 0 0
vt 0.1666666716337204 0
vt 0.3333333432674408 0
vt 0.5 0
vt 0.6666666865348816 0
vt 0.8333333134651184 0
vt 1 0
vt 0.5 0.5
vt 0.5 0.5
vt 0.5 0.5
vt 0.5 0.5
vt 0.5 0.5
vt 0.5 0.5
vt 1 0.5
vt 0.75 0.9330127239227295
vt 0.25 0.9330127239227295
vt 0 0.5
vt 0.25 0.0669872984290123
vt 0.75 0.0669872984290123
vt 1 0.5
vt 0.5 0.5
vt 0.5 0.5
vt 0.5 0.5
vt 0.5 0.5
vt 0.5 0.5
vt 0.5 0.5
vt 1 0.5
vt 0.75 0.0669872984290123
vt 0.25 0.0669872984290123
vt 0 0.5
vt 0.25 0.9330127239227295
vt 0.75 0.9330127239227295
vt 1 0.5
vn 1 -2.220446049250313e-16 4.930380657631324e-32
vn 0.5000000067305871 0.8660253998985324 -1.9229626777551189e-16
vn -0.5000000067305868 0.8660253998985327 -1.9229626777551193e-16
vn -1 3.445092901835481e-16 -7.64964292318089e-32
vn -0.5000000067305871 -0.8660253998985324 1.9229626777551189e-16
vn 0.5000000067305868 -0.8660253998985327 1.9229626777551193e-16
vn 1 -4.669739754420648e-16 1.0368905188730455e-31
vn 1 -2.220446049250313e-16 4.930380657631324e-32
vn 0.5000000067305871 0.8660253998985324 -1.9229626777551189e-16
vn -0.5000000067305868 0.8660253998985327 -1.9229626777551193e-16
vn -1 3.445092901835481e-16 -7.64964292318089e-32
vn -0.5000000067305871 -0.8660253998985324 1.9229626777551189e-16
vn 0.5000000067305868 -0.8660253998985327 1.9229626777551193e-16
vn 1 -4.669739754420648e-16 1.0368905188730455e-31
vn 4.930380657631324e-32 2.220446049250313e-16 1
vn 4.930380657631324e-32 2.220446049250313e-16 1
vn 4.930380657631324e-32 2.220446049250313e-16 1
vn 4.930380657631324e-32 2.220446049250313e-16 1
vn 4.930380657631324e-32 2.220446049250313e-16 1
vn 4.930380657631324e-32 2.220446049250313e-16 1
vn 4.930380657631324e-32 2.220446049250313e-16 1
vn 4.930380657631324e-32 2.220446049250313e-16 1
vn 4.930380657631324e-32 2.220446049250313e-16 1
vn 4.930380657631324e-32 2.220446049250313e-16 1
vn 4.930380657631324e-32 2.220446049250313e-16 1
vn 4.930380657631324e-32 2.220446049250313e-16 1
vn 4.930380657631324e-32 2.220446049250313e-16 1
vn -4.930380657631324e-32 -2.220446049250313e-16 -1
vn -4.930380657631324e-32 -2.220446049250313e-16 -1
vn -4.930380657631324e-32 -2.220446049250313e-16 -1
vn -4.930380657631324e-32 -2.220446049250313e-16 -1
vn -4.930380657631324e-32 -2.220446049250313e-16 -1
vn -4.930380657631324e-32 -2.220446049250313e-16 -1
vn -4.930380657631324e-32 -2.220446049250313e-16 -1
vn -4.930380657631324e-32 -2.220446049250313e-16 -1
vn -4.930380657631324e-32 -2.220446049250313e-16 -1
vn -4.930380657631324e-32 -2.220446049250313e-16 -1
vn -4.930380657631324e-32 -2.220446049250313e-16 -1
vn -4.930380657631324e-32 -2.220446049250313e-16 -1
vn -4.930380657631324e-32 -2.220446049250313e-16 -1
f 64/64/64 71/71/71 65/65/65
f 71/71/71 72/72/72 65/65/65
f 65/65/65 72/72/72 66/66/66
f 72/72/72 73/73/73 66/66/66
f 66/66/66 73/73/73 67/67/67
f 73/73/73 74/74/74 67/67/67
f 67/67/67 74/74/74 68/68/68
f 74/74/74 75/75/75 68/68/68
f 68/68/68 75/75/75 69/69/69
f 75/75/75 76/76/76 69/69/69
f 69/69/69 76/76/76 70/70/70
f 76/76/76 77/77/77 70/70/70
f 84/84/84 85/85/85 78/78/78
f 85/85/85 86/86/86 79/79/79
f 86/86/86 87/87/87 80/80/80
f 87/87/87 88/88/88 81/81/81
f 88/88/88 89/89/89 82/82/82
f 89/89/89 90/90/90 83/83/83
f 98/98/98 97/97/97 91/91/91
f 99/99/99 98/98/98 92/92/92
f 100/100/100 99/99/99 93/93/93
f 101/101/101 100/100/100 94/94/94
f 102/102/102 101/101/101 95/95/95
f 103/103/103 102/102/102 96/96/96
