# Blender v2.83.5 OBJ File: 'untitled1.blend'
# www.blender.org
mtllib t6.mtl
o Torus_Cube.001
v 1161.444336 -1220.261841 28.912123
v 1161.444824 1220.261353 28.912123
v 537.107666 536.569763 31.683187
v 537.107483 -536.569885 31.683187
v -536.021790 -536.569763 36.446621
v -1160.358887 -1220.261353 39.218212
v -1160.358398 1220.261841 39.218212
v -1160.664307 1220.261841 -29.695635
v -1160.664795 -1220.261353 -29.695635
v -536.327454 536.569885 -32.466702
v -536.327637 -536.569763 -32.466702
v 536.801636 -536.569885 -37.230137
v 1161.138428 -1220.261841 -40.001728
v 1161.138916 1220.261353 -40.001728
v -536.021606 536.569885 36.446621
v 536.801819 536.569763 -37.230137
vt 0.375000 0.000000
vt 0.625000 0.000000
vt 0.554965 0.067225
vt 0.445035 0.067225
vt 0.445035 0.182775
vt 0.375000 0.250000
vt 0.625000 0.250000
vt 0.625000 0.500000
vt 0.375000 0.500000
vt 0.554965 0.567226
vt 0.445035 0.567225
vt 0.445035 0.682775
vt 0.375000 0.750000
vt 0.625000 0.750000
vt 0.625000 1.000000
vt 0.375000 1.000000
vt 0.125000 0.500000
vt 0.125000 0.750000
vt 0.875000 0.500000
vt 0.875000 0.750000
vt 0.375000 0.373863
vt 0.375000 0.376137
vt 0.625000 0.376137
vt 0.625000 0.373863
vt 0.554965 0.682775
vt 0.554965 0.182775
vt 0.248863 0.750000
vt 0.251137 0.750000
vt 0.251137 0.500000
vt 0.248863 0.500000
vt 0.375000 0.873863
vt 0.375000 0.876137
vt 0.625000 0.876137
vt 0.625000 0.873863
vt 0.748863 0.750000
vt 0.751137 0.750000
vt 0.751137 0.500000
vt 0.748863 0.500000
vn 0.0044 0.0000 1.0000
vn -1.0000 0.0000 0.0044
vn -0.0044 0.0000 -1.0000
vn 1.0000 -0.0000 -0.0044
vn -0.0000 -1.0000 0.0000
vn 0.0000 1.0000 0.0000
usemtl None
s 1
f 1/1/1 2/2/1 3/3/1 4/4/1 5/5/1 6/6/1
f 6/6/2 7/7/2 8/8/2 9/9/2
f 9/9/3 8/8/3 10/10/3 11/11/3 12/12/3 13/13/3
f 13/13/4 14/14/4 2/15/4 1/16/4
f 6/17/5 9/9/5 13/13/5 1/18/5
f 8/8/6 7/19/6 2/20/6 14/14/6
f 5/21/4 11/22/4 10/23/4 15/24/4
f 13/13/3 12/12/3 16/25/3 10/10/3 8/8/3 14/14/3
f 6/6/1 5/5/1 15/26/1 3/3/1 2/2/1 7/7/1
f 4/27/6 12/28/6 11/29/6 5/30/6
f 12/31/2 4/32/2 3/33/2 16/34/2
f 16/35/5 3/36/5 15/37/5 10/38/5
o Cylinder_Cube.002
v 532.802795 -533.047424 31.217505
v 532.802979 533.047302 31.217505
v -533.281250 533.047424 35.949673
v -533.281433 -533.047302 35.949673
v -533.582825 533.047424 -31.994093
v -533.583008 -533.047302 -31.994093
v 532.501404 533.047302 -36.726261
v 532.501221 -533.047424 -36.726261
vt 0.375000 0.500000
vt 0.625000 0.500000
vt 0.625000 0.750000
vt 0.375000 0.750000
vt 0.375000 0.000000
vt 0.625000 0.000000
vt 0.625000 0.250000
vt 0.375000 0.250000
vt 0.625000 1.000000
vt 0.375000 1.000000
vt 0.125000 0.500000
vt 0.125000 0.750000
vt 0.875000 0.500000
vt 0.875000 0.750000
vn -0.0044 0.0000 -1.0000
vn 0.0044 -0.0000 1.0000
vn -1.0000 0.0000 0.0044
vn 1.0000 -0.0000 -0.0044
vn -0.0000 -1.0000 0.0000
vn 0.0000 1.0000 0.0000
usemtl None
s 1
f 22/39/7 21/40/7 23/41/7 24/42/7
usemtl Material.002
f 17/43/8 18/44/8 19/45/8 20/46/8
f 20/46/9 19/45/9 21/40/9 22/39/9
f 24/42/10 23/41/10 18/47/10 17/48/10
f 20/49/11 22/39/11 24/42/11 17/50/11
f 21/40/12 19/51/12 18/52/12 23/41/12
